<mxfile host="app.diagrams.net" agent="Mozilla/5.0 (Windows NT 10.0; Win64; x64) AppleWebKit/537.36 (KHTML, like Gecko) Chrome/141.0.0.0 Safari/537.36 Edg/141.0.0.0" version="28.2.5">
  <diagram name="Page-1" id="Th-gQKb9jt6B6uY1Yt6T">
    <mxGraphModel dx="1418" dy="756" grid="1" gridSize="10" guides="1" tooltips="1" connect="1" arrows="1" fold="1" page="1" pageScale="1" pageWidth="850" pageHeight="1100" math="0" shadow="0">
      <root>
        <mxCell id="0" />
        <mxCell id="1" parent="0" />
        <mxCell id="rcU8BfgcUMsye5oM4cOh-15" value="Student" style="shape=umlActor;verticalLabelPosition=bottom;verticalAlign=top;html=1;outlineConnect=0;fillColor=#f8cecc;strokeColor=#b85450;" parent="1" vertex="1">
          <mxGeometry x="60" y="40" width="30" height="60" as="geometry" />
        </mxCell>
        <mxCell id="rcU8BfgcUMsye5oM4cOh-19" value="Teacher&amp;nbsp;" style="shape=umlActor;verticalLabelPosition=bottom;verticalAlign=top;html=1;outlineConnect=0;fillColor=#f8cecc;strokeColor=#b85450;" parent="1" vertex="1">
          <mxGeometry x="210" y="40" width="30" height="60" as="geometry" />
        </mxCell>
        <mxCell id="rcU8BfgcUMsye5oM4cOh-20" value="Admin" style="shape=umlActor;verticalLabelPosition=bottom;verticalAlign=top;html=1;outlineConnect=0;fillColor=#f8cecc;strokeColor=#b85450;" parent="1" vertex="1">
          <mxGeometry x="370" y="40" width="30" height="60" as="geometry" />
        </mxCell>
        <mxCell id="rcU8BfgcUMsye5oM4cOh-21" value="System/Database" style="shape=umlLifeline;perimeter=lifelinePerimeter;whiteSpace=wrap;html=1;container=1;dropTarget=0;collapsible=0;recursiveResize=0;outlineConnect=0;portConstraint=eastwest;newEdgeStyle={&quot;curved&quot;:0,&quot;rounded&quot;:0};fillColor=#f8cecc;strokeColor=#b85450;" parent="1" vertex="1">
          <mxGeometry x="500" y="40" width="100" height="670" as="geometry" />
        </mxCell>
        <mxCell id="rcU8BfgcUMsye5oM4cOh-22" value="" style="endArrow=none;dashed=1;html=1;dashPattern=1 3;strokeWidth=2;rounded=0;" parent="1" edge="1">
          <mxGeometry width="50" height="50" relative="1" as="geometry">
            <mxPoint x="380" y="714" as="sourcePoint" />
            <mxPoint x="384.7619047619048" y="114" as="targetPoint" />
          </mxGeometry>
        </mxCell>
        <mxCell id="rcU8BfgcUMsye5oM4cOh-23" value="" style="endArrow=none;dashed=1;html=1;dashPattern=1 3;strokeWidth=2;rounded=0;" parent="1" edge="1">
          <mxGeometry width="50" height="50" relative="1" as="geometry">
            <mxPoint x="220" y="710" as="sourcePoint" />
            <mxPoint x="220" y="120" as="targetPoint" />
          </mxGeometry>
        </mxCell>
        <mxCell id="rcU8BfgcUMsye5oM4cOh-24" value="" style="endArrow=none;dashed=1;html=1;dashPattern=1 3;strokeWidth=2;rounded=0;" parent="1" edge="1">
          <mxGeometry width="50" height="50" relative="1" as="geometry">
            <mxPoint x="80" y="720" as="sourcePoint" />
            <mxPoint x="80" y="130" as="targetPoint" />
          </mxGeometry>
        </mxCell>
        <mxCell id="rcU8BfgcUMsye5oM4cOh-25" value="" style="endArrow=classic;html=1;rounded=0;" parent="1" target="rcU8BfgcUMsye5oM4cOh-21" edge="1">
          <mxGeometry width="50" height="50" relative="1" as="geometry">
            <mxPoint x="80" y="170" as="sourcePoint" />
            <mxPoint x="130" y="120" as="targetPoint" />
          </mxGeometry>
        </mxCell>
        <mxCell id="rcU8BfgcUMsye5oM4cOh-26" value="Login Request&amp;nbsp;" style="text;html=1;align=center;verticalAlign=middle;resizable=0;points=[];autosize=1;strokeColor=#82b366;fillColor=#d5e8d4;" parent="1" vertex="1">
          <mxGeometry x="410" y="135" width="100" height="30" as="geometry" />
        </mxCell>
        <mxCell id="rcU8BfgcUMsye5oM4cOh-27" value="" style="endArrow=classic;html=1;rounded=0;" parent="1" source="rcU8BfgcUMsye5oM4cOh-21" edge="1">
          <mxGeometry width="50" height="50" relative="1" as="geometry">
            <mxPoint x="300" y="240" as="sourcePoint" />
            <mxPoint x="80" y="190" as="targetPoint" />
          </mxGeometry>
        </mxCell>
        <mxCell id="rcU8BfgcUMsye5oM4cOh-28" value="Login Successful" style="text;html=1;align=center;verticalAlign=middle;resizable=0;points=[];autosize=1;strokeColor=#82b366;fillColor=#d5e8d4;" parent="1" vertex="1">
          <mxGeometry x="95" y="200" width="110" height="30" as="geometry" />
        </mxCell>
        <mxCell id="rcU8BfgcUMsye5oM4cOh-29" value="" style="endArrow=classic;html=1;rounded=0;" parent="1" target="rcU8BfgcUMsye5oM4cOh-21" edge="1">
          <mxGeometry width="50" height="50" relative="1" as="geometry">
            <mxPoint x="80" y="250" as="sourcePoint" />
            <mxPoint x="220" y="250" as="targetPoint" />
          </mxGeometry>
        </mxCell>
        <mxCell id="rcU8BfgcUMsye5oM4cOh-32" value="View Course Request&amp;nbsp;" style="text;html=1;align=center;verticalAlign=middle;resizable=0;points=[];autosize=1;strokeColor=#82b366;fillColor=#d5e8d4;" parent="1" vertex="1">
          <mxGeometry x="395" y="258" width="140" height="30" as="geometry" />
        </mxCell>
        <mxCell id="rcU8BfgcUMsye5oM4cOh-33" value="" style="endArrow=classic;html=1;rounded=0;" parent="1" edge="1">
          <mxGeometry width="50" height="50" relative="1" as="geometry">
            <mxPoint x="549.5" y="300" as="sourcePoint" />
            <mxPoint x="80" y="300" as="targetPoint" />
          </mxGeometry>
        </mxCell>
        <mxCell id="rcU8BfgcUMsye5oM4cOh-34" value="Display Course List" style="text;html=1;align=center;verticalAlign=middle;resizable=0;points=[];autosize=1;strokeColor=#82b366;fillColor=#d5e8d4;" parent="1" vertex="1">
          <mxGeometry x="75" y="298" width="130" height="30" as="geometry" />
        </mxCell>
        <mxCell id="rcU8BfgcUMsye5oM4cOh-35" value="" style="endArrow=classic;html=1;rounded=0;" parent="1" edge="1">
          <mxGeometry width="50" height="50" relative="1" as="geometry">
            <mxPoint x="220" y="348" as="sourcePoint" />
            <mxPoint x="380" y="348" as="targetPoint" />
          </mxGeometry>
        </mxCell>
        <mxCell id="rcU8BfgcUMsye5oM4cOh-36" value="Update Grades" style="text;html=1;align=center;verticalAlign=middle;resizable=0;points=[];autosize=1;strokeColor=#82b366;fillColor=#d5e8d4;" parent="1" vertex="1">
          <mxGeometry x="260" y="313" width="100" height="30" as="geometry" />
        </mxCell>
        <mxCell id="rcU8BfgcUMsye5oM4cOh-37" value="" style="endArrow=classic;html=1;rounded=0;" parent="1" target="rcU8BfgcUMsye5oM4cOh-21" edge="1">
          <mxGeometry width="50" height="50" relative="1" as="geometry">
            <mxPoint x="380" y="370" as="sourcePoint" />
            <mxPoint x="450" y="370" as="targetPoint" />
          </mxGeometry>
        </mxCell>
        <mxCell id="rcU8BfgcUMsye5oM4cOh-38" value="Update Records" style="text;html=1;align=center;verticalAlign=middle;resizable=0;points=[];autosize=1;strokeColor=#82b366;fillColor=#d5e8d4;" parent="1" vertex="1">
          <mxGeometry x="405" y="374" width="110" height="30" as="geometry" />
        </mxCell>
        <mxCell id="rcU8BfgcUMsye5oM4cOh-39" value="" style="endArrow=classic;html=1;rounded=0;exitX=0.5;exitY=0.576;exitDx=0;exitDy=0;exitPerimeter=0;" parent="1" source="rcU8BfgcUMsye5oM4cOh-21" edge="1">
          <mxGeometry width="50" height="50" relative="1" as="geometry">
            <mxPoint x="400" y="420" as="sourcePoint" />
            <mxPoint x="220" y="426" as="targetPoint" />
          </mxGeometry>
        </mxCell>
        <mxCell id="rcU8BfgcUMsye5oM4cOh-40" value="Grades Saved" style="text;html=1;align=center;verticalAlign=middle;resizable=0;points=[];autosize=1;strokeColor=#82b366;fillColor=#d5e8d4;" parent="1" vertex="1">
          <mxGeometry x="250" y="432" width="100" height="30" as="geometry" />
        </mxCell>
        <mxCell id="rcU8BfgcUMsye5oM4cOh-41" value="" style="endArrow=classic;html=1;rounded=0;" parent="1" edge="1">
          <mxGeometry width="50" height="50" relative="1" as="geometry">
            <mxPoint x="220" y="490" as="sourcePoint" />
            <mxPoint x="80" y="490" as="targetPoint" />
          </mxGeometry>
        </mxCell>
        <mxCell id="rcU8BfgcUMsye5oM4cOh-42" value="Student View Result" style="text;html=1;align=center;verticalAlign=middle;resizable=0;points=[];autosize=1;strokeColor=#82b366;fillColor=#d5e8d4;" parent="1" vertex="1">
          <mxGeometry x="85" y="452" width="130" height="30" as="geometry" />
        </mxCell>
        <mxCell id="rcU8BfgcUMsye5oM4cOh-43" value="" style="endArrow=classic;html=1;rounded=0;" parent="1" target="rcU8BfgcUMsye5oM4cOh-21" edge="1">
          <mxGeometry width="50" height="50" relative="1" as="geometry">
            <mxPoint x="80" y="560" as="sourcePoint" />
            <mxPoint x="220" y="560" as="targetPoint" />
          </mxGeometry>
        </mxCell>
        <mxCell id="rcU8BfgcUMsye5oM4cOh-44" value="Login request" style="text;html=1;align=center;verticalAlign=middle;resizable=0;points=[];autosize=1;strokeColor=#82b366;fillColor=#d5e8d4;" parent="1" vertex="1">
          <mxGeometry x="100" y="521" width="100" height="30" as="geometry" />
        </mxCell>
        <mxCell id="rcU8BfgcUMsye5oM4cOh-45" value="" style="endArrow=classic;html=1;rounded=0;" parent="1" edge="1">
          <mxGeometry width="50" height="50" relative="1" as="geometry">
            <mxPoint x="550" y="630" as="sourcePoint" />
            <mxPoint x="80" y="630" as="targetPoint" />
          </mxGeometry>
        </mxCell>
        <mxCell id="rcU8BfgcUMsye5oM4cOh-49" value="Login Successful" style="text;html=1;align=center;verticalAlign=middle;resizable=0;points=[];autosize=1;strokeColor=#82b366;fillColor=#d5e8d4;" parent="1" vertex="1">
          <mxGeometry x="95" y="637" width="110" height="30" as="geometry" />
        </mxCell>
        <mxCell id="rcU8BfgcUMsye5oM4cOh-50" value="" style="shape=umlDestroy;whiteSpace=wrap;html=1;strokeWidth=3;targetShapes=umlLifeline;" parent="1" vertex="1">
          <mxGeometry x="65" y="710" width="30" height="30" as="geometry" />
        </mxCell>
        <mxCell id="rcU8BfgcUMsye5oM4cOh-51" value="" style="shape=umlDestroy;whiteSpace=wrap;html=1;strokeWidth=3;targetShapes=umlLifeline;direction=south;" parent="1" vertex="1">
          <mxGeometry x="365" y="710" width="30" height="30" as="geometry" />
        </mxCell>
        <mxCell id="rcU8BfgcUMsye5oM4cOh-52" value="" style="shape=umlDestroy;whiteSpace=wrap;html=1;strokeWidth=3;targetShapes=umlLifeline;" parent="1" vertex="1">
          <mxGeometry x="205" y="700" width="30" height="30" as="geometry" />
        </mxCell>
        <mxCell id="rcU8BfgcUMsye5oM4cOh-53" value="" style="shape=umlDestroy;whiteSpace=wrap;html=1;strokeWidth=3;targetShapes=umlLifeline;" parent="1" vertex="1">
          <mxGeometry x="535" y="700" width="30" height="30" as="geometry" />
        </mxCell>
      </root>
    </mxGraphModel>
  </diagram>
</mxfile>
